<?xml version="1.0" encoding="iso-8859-1"?>
<!-- Generator: Adobe Illustrator 19.0.0, SVG Export Plug-In . SVG Version: 6.00 Build 0)  -->
<svg version="1.1" id="Layer_1" xmlns="http://www.w3.org/2000/svg" xmlns:xlink="http://www.w3.org/1999/xlink" x="0px" y="0px"
	 viewBox="0 0 512 512" style="enable-background:new 0 0 512 512;" xml:space="preserve">
<path style="fill:#5C5F66;" d="M105.003,512c-8.291,0-15-6.709-15-15v-29.999c0-8.291,6.709-15,15-15s15,6.709,15,15V497
	C120.003,505.291,113.294,512,105.003,512z"/>
<path style="fill:#53565C;" d="M406.997,512c-8.291,0-15-6.709-15-15v-29.999c0-8.291,6.709-15,15-15s15,6.709,15,15V497
	C421.996,505.291,415.287,512,406.997,512z"/>
<path style="fill:#7F838C;" d="M451.996,13.81c0.601,8.401-5.7,15.601-13.801,16.201L256,43.51L100.204,55.209
	c-5.101,1.201-10.201,7.2-10.201,14.401v45.498c0,8.101-6.599,15-15,15s-15-6.899-15-15V69.609c0-21.301,15.3-39.9,36.3-44.1
	L256,13.511l179.797-13.5C443.896-0.29,451.396,5.711,451.996,13.81z"/>
<path style="fill:#E55639;" d="M436.996,482H75.004c-41.352,0-74.998-33.646-74.998-74.998V167.007
	c0-41.352,33.646-74.998,74.998-74.998h361.992c41.352,0,74.998,33.646,74.998,74.998v239.995
	C511.994,448.353,478.348,482,436.996,482z"/>
<path style="fill:#CF4529;" d="M436.996,92.009H256V482h180.996c41.352,0,74.998-33.646,74.998-74.998V167.007
	C511.994,125.655,478.348,92.009,436.996,92.009z"/>
<path style="fill:#5C5F66;" d="M436.996,242.006H75.004c-8.291,0-15-6.709-15-15v-59.999c0-8.291,6.709-15,15-15h361.992
	c8.291,0,15,6.709,15,15v59.999C451.996,235.297,445.287,242.006,436.996,242.006z"/>
<path style="fill:#53565C;" d="M436.996,152.008H256v89.998h180.996c8.291,0,15-6.709,15-15v-59.999
	C451.996,158.716,445.287,152.008,436.996,152.008z"/>
<path style="fill:#E6EEFF;" d="M90.003,212.006h331.993v-29.999H90.003C90.003,182.007,90.003,212.006,90.003,212.006z"/>
<rect x="255.995" y="182.006" style="fill:#DAE2F2;" width="165.996" height="29.999"/>
<path style="fill:#FFDBB2;" d="M391.997,392.002c-33.09,0-59.999-26.908-59.999-59.999s26.908-59.999,59.999-59.999
	s59.999,26.908,59.999,59.999S425.087,392.002,391.997,392.002z"/>
<g>
	<path style="fill:#E6EEFF;" d="M285.999,302.004H135.003c-8.291,0-15-6.709-15-15s6.709-15,15-15h150.997c8.291,0,15,6.709,15,15
		S294.29,302.004,285.999,302.004z"/>
	<path style="fill:#E6EEFF;" d="M285.999,362.003H135.003c-8.291,0-15-6.709-15-15s6.709-15,15-15h150.997c8.291,0,15,6.709,15,15
		S294.29,362.003,285.999,362.003z"/>
	<path style="fill:#E6EEFF;" d="M285.999,422.002H135.003c-8.291,0-15-6.709-15-15c0-8.291,6.709-15,15-15h150.997
		c8.291,0,15,6.709,15,15C300.999,415.293,294.29,422.002,285.999,422.002z"/>
	<circle style="fill:#E6EEFF;" cx="74.999" cy="287.004" r="15"/>
	<circle style="fill:#E6EEFF;" cx="74.999" cy="347.002" r="15"/>
	<circle style="fill:#E6EEFF;" cx="74.999" cy="407.001" r="15"/>
</g>
<rect x="331.993" y="182.006" style="fill:#51DAE6;" width="29.999" height="29.999"/>
<g>
	<path style="fill:#DAE2F2;" d="M285.999,392.002H256v29.999h29.999c8.291,0,15-6.709,15-15
		C300.999,398.711,294.29,392.002,285.999,392.002z"/>
	<path style="fill:#DAE2F2;" d="M285.999,332.004H256v29.999h29.999c8.291,0,15-6.709,15-15S294.29,332.004,285.999,332.004z"/>
	<path style="fill:#DAE2F2;" d="M285.999,272.005H256v29.999h29.999c8.291,0,15-6.709,15-15S294.29,272.005,285.999,272.005z"/>
</g>
<path style="fill:#757982;" d="M451.996,13.81c0.601,8.401-5.7,15.601-13.801,16.201L256,43.51V13.511l179.797-13.5
	C443.896-0.29,451.396,5.711,451.996,13.81z"/>
<g>
</g>
<g>
</g>
<g>
</g>
<g>
</g>
<g>
</g>
<g>
</g>
<g>
</g>
<g>
</g>
<g>
</g>
<g>
</g>
<g>
</g>
<g>
</g>
<g>
</g>
<g>
</g>
<g>
</g>
</svg>
