<?xml version="1.0" encoding="iso-8859-1"?>
<!-- Generator: Adobe Illustrator 19.0.0, SVG Export Plug-In . SVG Version: 6.00 Build 0)  -->
<svg version="1.1" id="Layer_1" xmlns="http://www.w3.org/2000/svg" xmlns:xlink="http://www.w3.org/1999/xlink" x="0px" y="0px"
	 viewBox="0 0 512 512" style="enable-background:new 0 0 512 512;" xml:space="preserve">
<g>
	<g>
		<path d="M441.479,157.334h-270.81L435.301,32.431L421.049,2.234l-328.61,155.1H70.521C31.636,157.334,0,188.97,0,227.856v211.389
			c0,38.885,31.636,70.521,70.521,70.521h370.957c38.885,0,70.521-31.636,70.521-70.521V227.856
			C512,188.97,480.364,157.334,441.479,157.334z M478.609,439.245c0,20.473-16.657,37.13-37.13,37.13H70.521
			c-20.473-0.001-37.13-16.657-37.13-37.13V227.856c0-20.473,16.657-37.13,37.13-37.13h370.957c20.473,0,37.13,16.657,37.13,37.13
			V439.245z"/>
	</g>
</g>
<g>
	<g>
		<path d="M349.419,238.098c-52.632,0-95.451,42.82-95.451,95.451c0,52.631,42.819,95.451,95.451,95.451
			c52.633,0,95.451-42.82,95.451-95.451C444.87,280.918,402.051,238.098,349.419,238.098z M349.419,395.61
			c-34.22,0-62.06-27.841-62.06-62.06c0-34.219,27.839-62.06,62.06-62.06c34.221,0,62.06,27.841,62.06,62.06
			C411.479,367.77,383.639,395.61,349.419,395.61z"/>
	</g>
</g>
<g>
	<g>
		<rect x="67.105" y="238.102" width="133.487" height="33.391"/>
	</g>
</g>
<g>
	<g>
		<rect x="67.105" y="290.604" width="133.487" height="33.391"/>
	</g>
</g>
<g>
	<g>
		<rect x="67.105" y="343.107" width="133.487" height="33.391"/>
	</g>
</g>
<g>
	<g>
		<rect x="67.105" y="395.609" width="29.073" height="33.391"/>
	</g>
</g>
<g>
	<g>
		<rect x="119.318" y="395.609" width="29.073" height="33.391"/>
	</g>
</g>
<g>
	<g>
		<rect x="171.52" y="395.609" width="29.073" height="33.391"/>
	</g>
</g>
<g>
</g>
<g>
</g>
<g>
</g>
<g>
</g>
<g>
</g>
<g>
</g>
<g>
</g>
<g>
</g>
<g>
</g>
<g>
</g>
<g>
</g>
<g>
</g>
<g>
</g>
<g>
</g>
<g>
</g>
</svg>
